P2
2 1
255
10 248 
