P2
32 24
255
10 213 210 207 204 196 187 187 186 183 184 185 181 159 175 174 170 169 173 206 248 248 248 248 248 248 248 248 248 248 248 248 
248 212 208 158 131 158 189 185 181 180 179 170 171 191 162 169 169 171 174 199 248 248 248 248 248 248 248 248 248 248 248 248 
248 200 140 121 113 121 140 180 180 172 195 178 157 148 157 175 166 171 184 242 248 248 248 248 248 248 248 248 248 248 248 248 
248 194 113 121 114 129 152 145 174 160 183 176 167 154 148 151 164 170 190 248 248 248 248 227 189 220 231 245 248 248 248 248 
248 181 114 121 121 124 151 152 161 155 184 163 173 156 149 148 170 163 199 197 198 235 215 145 121 150 158 165 229 243 247 248 
248 181 109 117 146 148 154 139 166 151 153 153 153 160 146 174 174 186 188 205 236 198 196 173 134 113 129 125 140 214 215 221 
248 207 116 135 155 156 154 157 151 153 146 149 149 148 145 174 181 197 198 194 194 194 196 197 132 122 112 124 128 145 214 217 
248 194 150 152 149 145 147 142 197 154 147 139 143 142 142 155 183 193 201 198 197 193 186 173 144 119 121 127 123 156 213 217 
248 207 190 153 146 135 134 140 190 180 148 141 134 133 136 177 187 198 203 201 197 194 177 190 155 117 122 120 124 152 203 218 
248 141 120 226 141 131 130 132 192 190 165 142 130 145 150 156 162 180 197 198 196 199 181 163 145 148 123 115 131 138 186 222 
246 122 114 217 216 160 205 204 197 193 186 183 159 160 164 155 149 142 160 195 197 196 181 165 132 134 117 120 131 140 207 222 
229 114 106 110 221 132 207 207 199 196 189 166 156 161 156 157 147 143 144 191 190 190 153 135 132 121 104 124 132 158 228 229 
209 109 103 109 209 128 200 202 199 196 190 167 143 152 153 155 156 143 141 238 183 204 194 196 144 122 122 117 125 173 222 212 
212 107 111 97 107 161 196 198 196 196 192 156 132 140 152 153 156 146 140 219 196 188 154 160 108 121 107 124 118 136 223 220 
172 107 106 106 106 187 133 195 197 196 190 160 135 135 137 149 148 142 139 207 170 165 135 114 167 127 108 124 152 149 231 244 
190 101 107 101 107 212 148 192 192 200 130 134 127 141 135 135 141 143 180 193 175 124 146 103 129 161 153 159 145 144 147 189 
206 96 102 106 106 103 149 199 203 101 93 138 202 165 133 140 150 147 207 127 122 126 153 104 139 149 154 136 141 142 141 197 
183 82 94 104 83 103 112 121 95 93 94 92 182 206 105 107 108 112 109 122 119 155 150 154 152 147 151 130 147 143 141 220 
220 85 95 101 100 102 156 99 94 94 94 98 184 213 192 197 113 114 114 113 121 151 158 153 161 137 128 127 145 142 137 151 
197 85 95 95 102 89 161 89 90 98 104 193 179 204 164 200 209 113 118 121 110 148 150 152 146 139 138 126 143 141 139 142 
224 86 93 98 103 83 142 87 105 192 163 194 173 161 158 161 194 180 207 220 190 148 148 134 138 132 130 125 136 147 142 134 
175 87 94 98 99 90 129 86 140 182 179 182 205 207 196 199 210 220 230 242 155 128 147 148 122 122 126 120 113 145 141 140 
236 90 95 98 100 94 84 114 105 248 248 247 234 221 194 180 167 160 150 145 144 112 133 123 135 137 135 138 121 124 140 134 
139 95 96 98 101 98 91 160 96 132 167 166 157 160 158 150 163 193 211 190 190 128 123 133 112 141 132 125 120 130 141 136 
