P2
# Lorem ipsum dolor sit amet, consectetur adipiscing elit. Nulla condimentum in nulla ac interdum. Nunc vitae vehicula lectus, condimentum faucibus sapien. Vivamus pretium lectus condimentum lorem pretium, id fringilla nibh fermentum. Etiam at purus sed diam pulvinar ornare. Etiam blandit ligula velit, vel placerat ante viverra non. Mauris porttitor turpis a tincidunt porttitor. Duis sed tortor eget turpis tincidunt viverra nec non justo. Fusce hendrerit vitae risus in viverra. Praesent finibus arcu quis mauris varius, sit amet pharetra enim tincidunt. Nunc congue vestibulum orci, eu scelerisque nisl bibendum in. Proin dignissim efficitur neque. Fusce orci dolor, auctor non dui fringilla, porttitor maximus urna. In viverra ornare accumsan. Pellentesque habitant morbi tristique senectus et netus et malesuada fames ac turpis egestas.Sed commodo venenatis elit. Curabitur aliquam, enim in tincidunt pulvinar, magna justo semper sem, ut auctor diam justo at ligula. Cras justo risus, hendrerit nec dolor non, iaculis egestas elit. Nulla dapibus quis massa vel faucibus. Nam aliquam, metus eget eleifend consequat, diam enim sagittis tortor, ac porta erat nisi at libero. Ut mauris urna, convallis eget nibh et, porttitor gravida odio. In accumsan accumsan est, sit amet pharetra leo mattis ut. Suspendisse potenti. Nullam eget tristique leo, accumsan blandit urna. Duis sit amet interdum mauris, in sollicitudin quam. Ut commodo dolor nec tellus blandit scelerisque. Integer semper nisi vel rutrum scelerisque. Curabitur pellentesque, elit eu feugiat aliquet, massa dui pellentesque erat, vel tincidunt mi magna ac orci.Vestibulum ante ipsum primis in faucibus orci luctus et ultrices posuere cubilia curae; Suspendisse convallis, tortor eu eleifend volutpat, nunc ante euismod ex, in tincidunt libero velit ac massa. Nullam efficitur leo non dui venenatis finibus. Suspendisse quis justo interdum, euismod urna eget, sodales mauris. In tincidunt sapien viverra purus cursus, non semper arcu consequat. Aenean volutpat vestibulum mauris, et aliquam arcu interdum ac. Vestibulum semper id arcu sed lacinia. Aenean pharetra, quam non imperdiet consequat, ante lectus volutpat augue, eget tincidunt lorem tortor id orci. Curabitur dapibus, mi ut sodales ultrices, diam ipsum aliquet arcu, sit amet vehicula ipsum ante et turpis. Vivamus tristique nisi in nisi scelerisque sagittis.Duis eu nulla vel ante hendrerit pulvinar. Phasellus ac ligula vitae leo iaculis sodales in eget nibh. Morbi eu tortor justo. Nulla facilisi. Maecenas a metus purus. Orci varius natoque penatibus et magnis dis parturient montes, nascetur ridiculus mus. Aliquam lacus quam, pretium iaculis sollicitudin ac, gravida et sapien.Suspendisse quis ex et quam rutrum sollicitudin sit amet ut leo. Duis vitae interdum nunc, ac blandit felis. Pellentesque libero nulla, egestas vitae risus sit amet, viverra posuere arcu. Quisque vel ultrices massa, nec aliquet est. In quis eros diam. Phasellus at faucibus ipsum, eu feugiat felis. Cras urna nisl, convallis in neque sit amet, placerat interdum est. Aliquam rutrum hendrerit ex, eu pellentesque quam cursus id. In eros neque, tincidunt nec sem at, sollicitudin volutpat elit. Suspendisse ultrices dignissim dui, eu accumsan nisi aliquam eu. Suspendisse potenti. Praesent fringilla tellus ante, et consectetur orci viverra nec.Cras lobortis vehicula purus, id cursus velit tempus at. Etiam facilisis pretium rutrum. Mauris varius nisl mi, non bibendum dui lacinia vel. Quisque lobortis erat nec dui cursus interdum. Pellentesque ultricies iaculis metus vel faucibus. Quisque porttitor, metus blandit iaculis lacinia, leo tellus pharetra magna, in vulputate tortor sem id lorem. Nullam et felis imperdiet lorem pretium pellentesque vel et turpis. Sed a turpis at metus ullamcorper ultrices. Quisque efficitur tempus nulla, nec interdum libero ullamcorper sit amet. Vivamus vitae ullamcorper ex.Ut fermentum laoreet velit, non imperdiet tellus semper nec. Curabitur sit amet quam malesuada, tincidunt nibh eget, scelerisque odio. Fusce feugiat, metus id iaculis dapibus, dui odio vehicula nisi, non suscipit orci orci a tortor. Nunc nec metus imperdiet, sodales diam non, imperdiet purus. Fusce euismod consequat augue aliquam facilisis. Ut facilisis rutrum tortor, non interdum diam porta pulvinar. Vivamus rutrum diam ex, ac semper nisi finibus vel. Vivamus accumsan aliquam tincidunt. Donec sed pellentesque turpis. Mauris tortor mi, interdum quis nisl in, fermentum auctor ante. Donec id blandit nulla, interdum aliquet lorem. Donec at molestie magna. Maecenas feugiat pellentesque ex nec tempus.Quisque aliquam suscipit tellus, at fermentum ligula mattis a. Morbi at dolor bibendum, scelerisque nibh ut, aliquam lacus. Vestibulum urna nibh, consectetur a risus et, consequat vestibulum justo. Sed imperdiet feugiat tellus, at sagittis erat mattis quis. Phasellus volutpat lectus vitae felis auctor tristique. Nulla facilisis nibh justo, nec malesuada quam tristique eu. Praesent quis laoreet lacus, id egestas tortor. Nulla vel dui nec sapien sollicitudin vulputate sed eget lectus.Aliquam in nunc tellus. Cras lacinia condimentum ultricies. In congue semper ipsum, cursus dignissim nisl lacinia semper. Proin consequat, arcu vel porta lobortis, erat ligula laoreet dolor, porta porttitor odio diam id nibh. Proin enim quam, venenatis vitae augue ut, vehicula accumsan lacus. Proin dolor turpis, vulputate finibus est ut, pulvinar volutpat libero. Nullam vitae molestie neque.Pellentesque nec sapien dignissim, posuere lorem at, convallis mi. Maecenas imperdiet justo magna, eget mattis enim lobortis non. Sed in felis at enim pharetra efficitur in vitae nisl. Nullam blandit, quam at laoreet tincidunt, odio ligula interdum mauris, nec tempor turpis velit suscipit elit. Quisque tempus orci at turpis euismod, et mollis risus tempus. Duis rutrum leo vitae nunc feugiat tempor. Proin congue cursus dui id vulputate. Integer rutrum nulla sed enim tincidunt mollis.Sed iaculis enim eu molestie tempus. Ut consequat sed tellus eu porttitor. Nunc augue tellus, euismod at vestibulum vel, pretium id ex. Curabitur libero diam, tincidunt eget odio et, aliquet dapibus enim. Maecenas bibendum, ligula vitae iaculis rhoncus, ante nibh rutrum leo, pharetra tincidunt neque est a nulla. Sed augue nulla, aliquam fermentum augue ac, condimentum scelerisque erat. Donec tempor ac diam tempus ultrices. Sed posuere eu nulla non euismod.Proin non nulla augue. Vestibulum elementum elit purus, nec convallis ante pharetra hendrerit. Quisque tincidunt suscipit lectus vitae hendrerit. Vivamus id elit nunc. Morbi auctor arcu enim, nec vestibulum dui mollis ut. Curabitur augue tortor, ultricies et mi vel, euismod pretium erat. Nunc fermentum pulvinar dui at rhoncus. Maecenas nisi neque, vulputate rhoncus nisi sed, consectetur lacinia sapien. Curabitur eu sapien venenatis, bibendum dui pharetra, lacinia ipsum. Nullam maximus dolor vel mauris luctus rutrum. Fusce.
3 3
255
0
0
1
0
1
2
1
2
3
